<svg width="60" height="60" viewBox="0 0 60 60" fill="none" xmlns="http://www.w3.org/2000/svg">
<path fill-rule="evenodd" clip-rule="evenodd" d="M29.2542 43.3866C28.6537 43.987 29.0298 44.9959 29.879 44.9997C29.9192 44.9999 29.9595 45 29.9999 45C40.8652 45 50.1273 33.2432 52.1087 30.5466C52.3523 30.2152 52.3471 29.7777 52.1035 29.4463C51.5307 28.6673 50.3579 27.1425 48.7195 25.3651C48.3397 24.9531 47.6941 24.9466 47.2979 25.3428L29.2542 43.3866Z" fill="#3385FF"/>
<path fill-rule="evenodd" clip-rule="evenodd" d="M35.1761 17.3236C35.6874 16.8123 35.5022 15.9461 34.8098 15.7376C33.2565 15.27 31.6467 15 30 15C15.1758 15 8.74506 27.3105 7.66632 29.6267C7.55563 29.8644 7.55457 30.1332 7.66522 30.3709C8.17466 31.4652 9.88561 34.8054 13.1217 38.0182C13.5026 38.3964 14.1162 38.3835 14.4958 38.0039L20.7481 31.7516C20.9737 31.526 21.0745 31.2066 21.0433 30.889C21.0147 30.5966 21 30.3 21 30C21 25.0294 25.0294 21 30 21C30.3 21 30.5966 21.0147 30.889 21.0434C31.2066 21.0745 31.526 20.9737 31.7516 20.7481L35.1761 17.3236Z" fill="#3385FF"/>
<rect x="12.7502" y="46.0876" width="47.5" height="5" rx="2.5" transform="rotate(-45 12.7502 46.0876)" fill="#EC6373"/>
</svg>
