<svg width="60" height="60" viewBox="0 0 60 60" fill="none" xmlns="http://www.w3.org/2000/svg">
<path d="M30 5C23.45 5 18.125 10.325 18.125 16.875C18.125 23.3 23.15 28.5 29.7 28.725C29.9 28.7 30.1 28.7 30.25 28.725C30.3 28.725 30.325 28.725 30.375 28.725C30.4 28.725 30.4 28.725 30.425 28.725C36.825 28.5 41.85 23.3 41.875 16.875C41.875 10.325 36.55 5 30 5Z" fill="#EC6373"/>
<path d="M42.7 35.4001C35.725 30.7501 24.35 30.7501 17.325 35.4001C14.15 37.5001 12.4 40.3751 12.4 43.4501C12.4 46.5251 14.15 49.3751 17.3 51.4751C20.8 53.8251 25.4 55.0001 30 55.0001C34.6 55.0001 39.2 53.8251 42.7 51.4751C45.85 49.3501 47.6 46.5001 47.6 43.4001C47.575 40.3501 45.85 37.4751 42.7 35.4001ZM34.575 45.1751H25.45C24.5 45.1751 23.725 44.4001 23.725 43.4501C23.725 42.5001 24.5 41.7251 25.45 41.7251H34.575C35.525 41.7251 36.3 42.5001 36.3 43.4501C36.3 44.4001 35.525 45.1751 34.575 45.1751Z" fill="#3385FF"/>
</svg>
