<svg width="60" height="60" viewBox="0 0 60 60" fill="none" xmlns="http://www.w3.org/2000/svg">
<path d="M20 17.5C18.6193 17.5 17.5 16.3807 17.5 15C17.5 13.6193 18.6193 12.5 20 12.5L40 12.5C45.5228 12.5 50 16.9772 50 22.5C50 28.0228 45.5228 32.5 40 32.5H20C17.2386 32.5 15 34.7386 15 37.5C15 40.2614 17.2386 42.5 20 42.5H42.5C43.8807 42.5 45 43.6193 45 45C45 46.3807 43.8807 47.5 42.5 47.5H20C14.4772 47.5 10 43.0228 10 37.5C10 31.9772 14.4772 27.5 20 27.5H40C42.7614 27.5 45 25.2614 45 22.5C45 19.7386 42.7614 17.5 40 17.5H20Z" fill="#3385FF"/>
<path d="M24.2678 20.7322C25.2441 21.7085 25.2441 23.2915 24.2678 24.2678C23.2915 25.2441 21.7085 25.2441 20.7322 24.2678L13.2322 16.7678C12.2559 15.7915 12.2559 14.2085 13.2322 13.2322L20.7322 5.73223C21.7085 4.75592 23.2915 4.75592 24.2678 5.73223C25.2441 6.70854 25.2441 8.29146 24.2678 9.26777L18.5355 15L24.2678 20.7322Z" fill="#EC6373"/>
<path d="M35.7322 50.7322C34.7559 51.7085 34.7559 53.2915 35.7322 54.2678C36.7085 55.2441 38.2915 55.2441 39.2678 54.2678L46.7678 46.7678C47.7441 45.7915 47.7441 44.2085 46.7678 43.2322L39.2678 35.7322C38.2915 34.7559 36.7085 34.7559 35.7322 35.7322C34.7559 36.7085 34.7559 38.2915 35.7322 39.2678L41.4645 45L35.7322 50.7322Z" fill="#EC6373"/>
</svg>
