<svg width="60" height="60" viewBox="0 0 60 60" fill="none" xmlns="http://www.w3.org/2000/svg">
<path fill-rule="evenodd" clip-rule="evenodd" d="M27.5 7.5C27.5 6.11929 28.6193 5 30 5C31.3807 5 32.5 6.11929 32.5 7.5V12.5C32.5 13.8807 31.3807 15 30 15C28.6193 15 27.5 13.8807 27.5 12.5V7.5ZM7.5 27.5C6.11929 27.5 5 28.6193 5 30C5 31.3807 6.11929 32.5 7.5 32.5H12.5C13.8807 32.5 15 31.3807 15 30C15 28.6193 13.8807 27.5 12.5 27.5H7.5ZM47.5 27.5C46.1193 27.5 45 28.6193 45 30C45 31.3807 46.1193 32.5 47.5 32.5H52.5C53.8807 32.5 55 31.3807 55 30C55 28.6193 53.8807 27.5 52.5 27.5H47.5ZM30 45C28.6193 45 27.5 46.1193 27.5 47.5V52.5C27.5 53.8807 28.6193 55 30 55C31.3807 55 32.5 53.8807 32.5 52.5V47.5C32.5 46.1193 31.3807 45 30 45Z" fill="#3385FF"/>
<path fill-rule="evenodd" clip-rule="evenodd" d="M30 35C32.7614 35 35 32.7614 35 30C35 27.2386 32.7614 25 30 25C27.2386 25 25 27.2386 25 30C25 32.7614 27.2386 35 30 35Z" fill="#3385FF"/>
<path fill-rule="evenodd" clip-rule="evenodd" d="M12.5 30C12.5 39.665 20.335 47.5 30 47.5C39.665 47.5 47.5 39.665 47.5 30C47.5 20.335 39.665 12.5 30 12.5C20.335 12.5 12.5 20.335 12.5 30ZM42.5 30C42.5 36.9036 36.9036 42.5 30 42.5C23.0964 42.5 17.5 36.9036 17.5 30C17.5 23.0964 23.0964 17.5 30 17.5C36.9036 17.5 42.5 23.0964 42.5 30Z" fill="#EC6373"/>
</svg>
