<svg width="60" height="60" viewBox="0 0 60 60" fill="none" xmlns="http://www.w3.org/2000/svg">
<path fill-rule="evenodd" clip-rule="evenodd" d="M30 7.5C18.9543 7.5 10 16.4543 10 27.5V47C10 51.4183 13.5817 55 18 55H42C46.4183 55 50 51.4183 50 47V27.5C50 16.4543 41.0457 7.5 30 7.5ZM22.5 25C18.3579 25 15 28.3579 15 32.5C15 36.6421 18.3579 40 22.5 40H37.5C41.6421 40 45 36.6421 45 32.5C45 28.3579 41.6421 25 37.5 25H22.5Z" fill="#3385FF"/>
<path fill-rule="evenodd" clip-rule="evenodd" d="M25 32.5C25 33.8807 23.8807 35 22.5 35C21.1193 35 20 33.8807 20 32.5C20 31.1193 21.1193 30 22.5 30C23.8807 30 25 31.1193 25 32.5ZM40 32.5C40 33.8807 38.8807 35 37.5 35C36.1193 35 35 33.8807 35 32.5C35 31.1193 36.1193 30 37.5 30C38.8807 30 40 31.1193 40 32.5Z" fill="#EC6373"/>
</svg>
