<svg width="196" height="36" viewBox="0 0 196 36" fill="none" xmlns="http://www.w3.org/2000/svg">
<path d="M6.18323 0.867188V26.8471H0V0.867188H6.18323Z" fill="#25272C"/>
<path d="M15.4801 0.867032H21.7666V3.93651C22.0765 3.47166 22.7037 2.63788 23.7883 1.90741C25.3452 0.763733 27.7358 0.0922852 29.7649 0.0922852C32.7237 0.0922852 35.2693 1.44256 36.5753 3.21341C38.1839 5.39746 38.1839 8.20131 38.1839 11.5807V26.8543H32.0006V13.595C32.0006 11.6766 32.0006 10.378 31.794 9.64751C31.2259 7.36016 29.5583 6.16483 27.5366 6.16483C25.5075 6.16483 23.6407 7.36016 22.7553 9.07198C21.7666 10.9904 21.7666 13.6467 21.7666 15.5651V26.8395H15.4801V0.867032Z" fill="#25272C"/>
<path d="M81.0533 0.867188V26.8471H74.8701V0.867188H81.0533Z" fill="#25272C"/>
<path d="M92.8443 19.1511C94.4011 21.0769 96.7401 22.4789 100.326 22.4789C103.912 22.4789 105.469 20.7154 105.469 19.4168C105.469 17.7566 103.595 17.3434 102.768 17.1811C101.89 16.9745 97.6256 16.1923 96.6885 15.9341C90.5053 14.4805 89.3616 10.8945 89.3616 8.55554C89.3616 4.13579 93.3608 0.0849609 100.481 0.0849609C104.436 0.0849609 107.291 1.33194 109.055 2.57891C110.354 3.41269 111.187 4.29074 111.704 4.91791L107.284 9.02039C106.554 7.61846 104.79 5.07286 100.215 5.07286C97.2566 5.07286 95.9064 6.37149 95.9064 7.72176C95.9064 9.58854 97.8322 10.1124 101.153 10.6879C106.554 11.6767 108.066 11.9349 109.726 13.2335C111.335 14.4805 112.375 16.5613 112.375 18.7453C112.375 22.7961 108.738 27.6291 100.68 27.6291C96.0539 27.6291 91.4866 26.1755 88.2105 23.0027L92.8443 19.1511Z" fill="#25272C"/>
<path d="M132.076 27.6217C123.974 27.6217 118.566 21.6967 118.566 13.75C118.566 5.80334 124.07 0.0849609 131.81 0.0849609C139.034 0.0849609 145.217 5.12451 145.269 13.75C145.269 21.8517 139.919 27.6217 132.076 27.6217ZM131.759 5.70004C127.863 5.70004 125.052 8.81379 125.052 13.5951C125.052 18.9445 128.328 21.9107 132.069 21.9107C136.592 21.9107 138.879 17.9632 138.717 13.6467C138.621 9.33766 136.127 5.70004 131.759 5.70004Z" fill="#25272C"/>
<path d="M158.986 0.867274V4.55655C159.76 3.20627 161.48 0.144176 167.301 0.299125V6.68895C165.951 6.7406 163.612 6.79225 161.694 8.24582C159.045 10.2749 158.993 12.9238 158.993 17.2329V26.8472H152.965V0.867274H158.986Z" fill="#25272C"/>
<path d="M195.045 0.867188L188.441 23.5193L186.987 28.4039C185.224 33.8567 183.298 35.7825 178.465 35.7825C176.436 35.7825 175.454 35.5759 174.724 35.4726V30.0198C175.3 30.1231 175.764 30.1748 176.384 30.1748C176.849 30.1748 178.207 30.1748 179.188 29.496C179.919 29.0311 180.642 27.8874 180.642 27.3636L171.249 0.867188H177.948L183.718 20.2506L188.655 0.867188H195.045Z" fill="#25272C"/>
<path d="M59.8098 20.09C66.5231 15.8844 69.75 8.1346 69.75 0.410976V2.14056C69.7488 12.0579 65.6088 22.0105 56.9878 27.4097C48.1805 21.5581 43.3125 12.0487 43.3125 1.08163V0.409668L49.18 0.410976C49.4179 8.60131 53.1734 15.6817 59.8098 20.09Z" fill="#3385FF"/>
</svg>
