<svg width="170" height="55" viewBox="0 0 170 55" fill="none" xmlns="http://www.w3.org/2000/svg">
<g clip-path="url(#clip0_338_5654)">
<path fill-rule="evenodd" clip-rule="evenodd" d="M114.644 14.2031C117.239 14.2031 119.564 15.1209 121.405 16.712L121.653 16.9331L122.663 14.9979L128 14.9974V44.7115L120.216 48V38.4504C118.603 39.4862 116.711 40.065 114.644 40.065C107.654 40.065 102.658 34.6822 102.658 27.1213C102.658 19.5859 107.63 14.2031 114.644 14.2031ZM49.9932 6V15.6704C51.6733 14.5986 53.6556 13.9992 55.8264 13.9987C63.0542 13.9987 68.1597 19.3622 68.1597 26.8976C68.1597 34.4329 63.0542 39.7969 55.8264 39.7969C53.2061 39.7969 50.8649 38.9288 48.9973 37.4131L48.7456 37.2025L47.9832 39.0026H42V9.28851L49.9932 6ZM86.7985 15.0234V22.3319H83.7432C81.0366 22.3319 79.858 23.5021 79.7929 26.2802L79.79 26.5295V38.3203H71.9202V15.1338H77.1926L78.4204 17.7071C79.9672 15.8913 81.838 15.0886 84.3911 15.0273L84.7138 15.0234H86.7985ZM98.8973 15.0234V38.3203H90.7224V15.0234H98.8973ZM115.697 21.5724C112.748 21.5724 110.58 23.9548 110.58 27.1213C110.58 30.2873 112.766 32.6697 115.697 32.6697C118.646 32.6697 120.814 30.2873 120.814 27.1213C120.814 23.9548 118.646 21.5724 115.697 21.5724ZM54.7449 21.3675C51.7164 21.3675 49.4903 23.7311 49.4903 26.8976C49.4903 30.038 51.7164 32.4016 54.7449 32.4016C57.7548 32.4016 59.9995 30.038 59.9995 26.8976C59.9995 23.7311 57.7734 21.3675 54.7449 21.3675Z" fill="#A6B1C5"/>
</g>
<defs>
<clipPath id="clip0_338_5654">
<rect width="86" height="42" fill="white" transform="translate(42 6)"/>
</clipPath>
</defs>
</svg>
