<svg width="440" height="434" viewBox="0 0 440 434" fill="none" xmlns="http://www.w3.org/2000/svg">
<path d="M279.924 0.55277L250.5 0.552743C244.977 0.552738 240.5 5.02989 240.5 10.5527V57.4997M278.5 115H250.5C244.977 115 240.5 110.523 240.5 105V57.4997M240.5 57.4997H234.5" stroke="#BEC7D6"/>
<path d="M23.3461 392.8V394.464H19.7781V404H18.1141V394.464H14.5541V392.8H23.3461ZM27.2534 404.208C26.5174 404.208 25.8454 404.019 25.2374 403.64C24.6348 403.261 24.1521 402.755 23.7894 402.12C23.4321 401.48 23.2534 400.773 23.2534 400C23.2534 399.413 23.3574 398.867 23.5654 398.36C23.7734 397.848 24.0588 397.4 24.4214 397.016C24.7894 396.627 25.2161 396.323 25.7014 396.104C26.1868 395.885 26.7041 395.776 27.2534 395.776C27.8668 395.776 28.4294 395.904 28.9414 396.16C29.4534 396.411 29.8908 396.76 30.2534 397.208C30.6161 397.651 30.8828 398.163 31.0534 398.744C31.2241 399.32 31.2748 399.933 31.2054 400.584H25.0374C25.1068 400.952 25.2401 401.285 25.4374 401.584C25.6401 401.877 25.8961 402.109 26.2054 402.28C26.5201 402.451 26.8694 402.539 27.2534 402.544C27.6588 402.544 28.0268 402.443 28.3574 402.24C28.6934 402.037 28.9681 401.757 29.1814 401.4L30.8694 401.792C30.5494 402.501 30.0668 403.083 29.4214 403.536C28.7761 403.984 28.0534 404.208 27.2534 404.208ZM24.9814 399.312H29.5254C29.4721 398.928 29.3361 398.581 29.1174 398.272C28.9041 397.957 28.6348 397.709 28.3094 397.528C27.9894 397.341 27.6374 397.248 27.2534 397.248C26.8748 397.248 26.5228 397.339 26.1974 397.52C25.8774 397.701 25.6108 397.949 25.3974 398.264C25.1894 398.573 25.0508 398.923 24.9814 399.312ZM38.7387 396H40.4027V404H38.7307L38.6667 402.84C38.432 403.251 38.1147 403.581 37.7147 403.832C37.3147 404.083 36.8427 404.208 36.2987 404.208C35.712 404.208 35.16 404.099 34.6427 403.88C34.1254 403.656 33.6694 403.347 33.2747 402.952C32.8854 402.557 32.5814 402.104 32.3627 401.592C32.144 401.075 32.0347 400.52 32.0347 399.928C32.0347 399.357 32.1414 398.821 32.3547 398.32C32.568 397.813 32.864 397.371 33.2427 396.992C33.6214 396.613 34.0587 396.317 34.5547 396.104C35.056 395.885 35.592 395.776 36.1627 395.776C36.744 395.776 37.256 395.909 37.6987 396.176C38.1467 396.437 38.5174 396.773 38.8107 397.184L38.7387 396ZM36.2587 402.6C36.728 402.6 37.1387 402.485 37.4907 402.256C37.8427 402.021 38.1147 401.707 38.3067 401.312C38.504 400.917 38.6027 400.48 38.6027 400C38.6027 399.515 38.504 399.075 38.3067 398.68C38.1094 398.285 37.8347 397.973 37.4827 397.744C37.136 397.509 36.728 397.392 36.2587 397.392C35.7947 397.392 35.3707 397.509 34.9867 397.744C34.6027 397.979 34.2987 398.293 34.0747 398.688C33.8507 399.083 33.7387 399.52 33.7387 400C33.7387 400.485 33.8534 400.925 34.0827 401.32C34.3174 401.709 34.624 402.021 35.0027 402.256C35.3867 402.485 35.8054 402.6 36.2587 402.6ZM41.9991 404V396H43.6631V396.848C43.9404 396.517 44.2791 396.256 44.6791 396.064C45.0844 395.872 45.5217 395.776 45.9911 395.776C46.5617 395.776 47.0871 395.915 47.5671 396.192C48.0471 396.464 48.4284 396.827 48.7111 397.28C48.9937 396.827 49.3697 396.464 49.8391 396.192C50.3137 395.915 50.8364 395.776 51.4071 395.776C51.9991 395.776 52.5377 395.92 53.0231 396.208C53.5084 396.496 53.8951 396.883 54.1831 397.368C54.4711 397.853 54.6151 398.392 54.6151 398.984V404H52.9511V399.408C52.9511 399.056 52.8657 398.733 52.6951 398.44C52.5244 398.147 52.2951 397.909 52.0071 397.728C51.7191 397.547 51.3991 397.456 51.0471 397.456C50.6951 397.456 50.3751 397.541 50.0871 397.712C49.7991 397.883 49.5697 398.115 49.3991 398.408C49.2284 398.701 49.1431 399.035 49.1431 399.408V404H47.4791V399.408C47.4791 399.035 47.3937 398.701 47.2231 398.408C47.0524 398.115 46.8204 397.883 46.5271 397.712C46.2391 397.541 45.9191 397.456 45.5671 397.456C45.2204 397.456 44.9004 397.547 44.6071 397.728C44.3191 397.909 44.0897 398.147 43.9191 398.44C43.7484 398.733 43.6631 399.056 43.6631 399.408V404H41.9991ZM61.7256 408H60.0616V396H61.7256V397.176C61.9922 396.765 62.3336 396.432 62.7496 396.176C63.1656 395.92 63.6562 395.792 64.2216 395.792C64.8029 395.792 65.3469 395.901 65.8536 396.12C66.3656 396.339 66.8136 396.643 67.1976 397.032C67.5816 397.416 67.8829 397.861 68.1016 398.368C68.3202 398.875 68.4296 399.419 68.4296 400C68.4296 400.581 68.3202 401.128 68.1016 401.64C67.8829 402.152 67.5816 402.603 67.1976 402.992C66.8136 403.376 66.3656 403.677 65.8536 403.896C65.3469 404.115 64.8029 404.224 64.2216 404.224C63.6562 404.224 63.1656 404.096 62.7496 403.84C62.3336 403.579 61.9922 403.245 61.7256 402.84V408ZM64.2056 397.4C63.7416 397.4 63.3336 397.517 62.9816 397.752C62.6296 397.987 62.3549 398.301 62.1576 398.696C61.9602 399.085 61.8616 399.52 61.8616 400C61.8616 400.48 61.9602 400.917 62.1576 401.312C62.3549 401.707 62.6296 402.021 62.9816 402.256C63.3336 402.491 63.7416 402.608 64.2056 402.608C64.6642 402.608 65.0856 402.493 65.4696 402.264C65.8536 402.029 66.1602 401.715 66.3896 401.32C66.6189 400.925 66.7336 400.485 66.7336 400C66.7336 399.525 66.6189 399.091 66.3896 398.696C66.1656 398.301 65.8616 397.987 65.4776 397.752C65.0936 397.517 64.6696 397.4 64.2056 397.4ZM73.2378 404.208C72.5018 404.208 71.8298 404.019 71.2218 403.64C70.6191 403.261 70.1365 402.755 69.7738 402.12C69.4165 401.48 69.2378 400.773 69.2378 400C69.2378 399.413 69.3418 398.867 69.5498 398.36C69.7578 397.848 70.0431 397.4 70.4058 397.016C70.7738 396.627 71.2005 396.323 71.6858 396.104C72.1711 395.885 72.6885 395.776 73.2378 395.776C73.8511 395.776 74.4138 395.904 74.9258 396.16C75.4378 396.411 75.8751 396.76 76.2378 397.208C76.6005 397.651 76.8671 398.163 77.0378 398.744C77.2085 399.32 77.2591 399.933 77.1898 400.584H71.0218C71.0911 400.952 71.2245 401.285 71.4218 401.584C71.6245 401.877 71.8805 402.109 72.1898 402.28C72.5045 402.451 72.8538 402.539 73.2378 402.544C73.6431 402.544 74.0111 402.443 74.3418 402.24C74.6778 402.037 74.9525 401.757 75.1658 401.4L76.8538 401.792C76.5338 402.501 76.0511 403.083 75.4058 403.536C74.7605 403.984 74.0378 404.208 73.2378 404.208ZM70.9658 399.312H75.5098C75.4565 398.928 75.3205 398.581 75.1018 398.272C74.8885 397.957 74.6191 397.709 74.2938 397.528C73.9738 397.341 73.6218 397.248 73.2378 397.248C72.8591 397.248 72.5071 397.339 72.1818 397.52C71.8618 397.701 71.5951 397.949 71.3818 398.264C71.1738 398.573 71.0351 398.923 70.9658 399.312ZM78.5147 404V396H80.1787V396.848C80.456 396.517 80.7974 396.256 81.2027 396.064C81.608 395.872 82.0454 395.776 82.5147 395.776C82.8134 395.776 83.1094 395.816 83.4027 395.896L82.7387 397.576C82.5307 397.496 82.3227 397.456 82.1147 397.456C81.7627 397.456 81.44 397.544 81.1467 397.72C80.8534 397.891 80.6187 398.123 80.4427 398.416C80.2667 398.709 80.1787 399.035 80.1787 399.392V404H78.5147ZM86.8988 394.184V396H89.1548V397.664H86.8988V404H85.2348V397.664H84.2828V396H85.2348V394.184C85.2348 393.747 85.3415 393.349 85.5548 392.992C85.7681 392.629 86.0535 392.341 86.4108 392.128C86.7735 391.915 87.1761 391.808 87.6188 391.808C87.9388 391.808 88.2508 391.872 88.5548 392C88.8588 392.128 89.1308 392.325 89.3708 392.592L88.1788 393.768C88.1201 393.672 88.0375 393.6 87.9308 393.552C87.8295 393.499 87.7255 393.472 87.6188 393.472C87.4215 393.472 87.2508 393.541 87.1068 393.68C86.9681 393.819 86.8988 393.987 86.8988 394.184ZM93.8003 404.208C93.0643 404.208 92.3923 404.019 91.7843 403.64C91.1816 403.261 90.699 402.755 90.3363 402.12C89.979 401.48 89.8003 400.773 89.8003 400C89.8003 399.413 89.9043 398.867 90.1123 398.36C90.3203 397.848 90.6056 397.4 90.9683 397.016C91.3363 396.627 91.763 396.323 92.2483 396.104C92.7336 395.885 93.251 395.776 93.8003 395.776C94.5363 395.776 95.2056 395.965 95.8083 396.344C96.4163 396.723 96.899 397.232 97.2563 397.872C97.619 398.512 97.8003 399.221 97.8003 400C97.8003 400.581 97.6963 401.125 97.4883 401.632C97.2803 402.139 96.9923 402.587 96.6243 402.976C96.2616 403.36 95.8376 403.661 95.3523 403.88C94.8723 404.099 94.355 404.208 93.8003 404.208ZM93.8003 402.544C94.243 402.544 94.6403 402.427 94.9923 402.192C95.3443 401.957 95.6216 401.648 95.8243 401.264C96.0323 400.875 96.1363 400.453 96.1363 400C96.1363 399.536 96.0296 399.109 95.8163 398.72C95.6083 398.331 95.3283 398.021 94.9763 397.792C94.6243 397.557 94.2323 397.44 93.8003 397.44C93.363 397.44 92.9656 397.557 92.6083 397.792C92.2563 398.027 91.9763 398.339 91.7683 398.728C91.5656 399.117 91.4643 399.541 91.4643 400C91.4643 400.475 91.571 400.904 91.7843 401.288C91.9976 401.672 92.2803 401.979 92.6323 402.208C92.9896 402.432 93.379 402.544 93.8003 402.544ZM99.0928 404V396H100.757V396.848C101.034 396.517 101.375 396.256 101.781 396.064C102.186 395.872 102.623 395.776 103.093 395.776C103.391 395.776 103.687 395.816 103.981 395.896L103.317 397.576C103.109 397.496 102.901 397.456 102.693 397.456C102.341 397.456 102.018 397.544 101.725 397.72C101.431 397.891 101.197 398.123 101.021 398.416C100.845 398.709 100.757 399.035 100.757 399.392V404H99.0928ZM104.968 404V396H106.632V396.848C106.909 396.517 107.248 396.256 107.648 396.064C108.053 395.872 108.49 395.776 108.96 395.776C109.53 395.776 110.056 395.915 110.536 396.192C111.016 396.464 111.397 396.827 111.68 397.28C111.962 396.827 112.338 396.464 112.808 396.192C113.282 395.915 113.805 395.776 114.376 395.776C114.968 395.776 115.506 395.92 115.992 396.208C116.477 396.496 116.864 396.883 117.152 397.368C117.44 397.853 117.584 398.392 117.584 398.984V404H115.92V399.408C115.92 399.056 115.834 398.733 115.664 398.44C115.493 398.147 115.264 397.909 114.976 397.728C114.688 397.547 114.368 397.456 114.016 397.456C113.664 397.456 113.344 397.541 113.056 397.712C112.768 397.883 112.538 398.115 112.368 398.408C112.197 398.701 112.112 399.035 112.112 399.408V404H110.448V399.408C110.448 399.035 110.362 398.701 110.192 398.408C110.021 398.115 109.789 397.883 109.496 397.712C109.208 397.541 108.888 397.456 108.536 397.456C108.189 397.456 107.869 397.547 107.576 397.728C107.288 397.909 107.058 398.147 106.888 398.44C106.717 398.733 106.632 399.056 106.632 399.408V404H104.968ZM125.254 396H126.918V404H125.246L125.182 402.84C124.948 403.251 124.63 403.581 124.23 403.832C123.83 404.083 123.358 404.208 122.814 404.208C122.228 404.208 121.676 404.099 121.158 403.88C120.641 403.656 120.185 403.347 119.79 402.952C119.401 402.557 119.097 402.104 118.878 401.592C118.66 401.075 118.55 400.52 118.55 399.928C118.55 399.357 118.657 398.821 118.87 398.32C119.084 397.813 119.38 397.371 119.758 396.992C120.137 396.613 120.574 396.317 121.07 396.104C121.572 395.885 122.108 395.776 122.678 395.776C123.26 395.776 123.772 395.909 124.214 396.176C124.662 396.437 125.033 396.773 125.326 397.184L125.254 396ZM122.774 402.6C123.244 402.6 123.654 402.485 124.006 402.256C124.358 402.021 124.63 401.707 124.822 401.312C125.02 400.917 125.118 400.48 125.118 400C125.118 399.515 125.02 399.075 124.822 398.68C124.625 398.285 124.35 397.973 123.998 397.744C123.652 397.509 123.244 397.392 122.774 397.392C122.31 397.392 121.886 397.509 121.502 397.744C121.118 397.979 120.814 398.293 120.59 398.688C120.366 399.083 120.254 399.52 120.254 400C120.254 400.485 120.369 400.925 120.598 401.32C120.833 401.709 121.14 402.021 121.518 402.256C121.902 402.485 122.321 402.6 122.774 402.6ZM135.715 398.984V404H134.051V399.392C134.051 399.035 133.963 398.709 133.787 398.416C133.616 398.123 133.384 397.891 133.091 397.72C132.803 397.544 132.477 397.456 132.115 397.456C131.763 397.456 131.44 397.544 131.147 397.72C130.853 397.891 130.619 398.123 130.443 398.416C130.267 398.709 130.179 399.035 130.179 399.392V404H128.515V396H130.179V396.848C130.456 396.517 130.797 396.256 131.203 396.064C131.608 395.872 132.045 395.776 132.515 395.776C133.107 395.776 133.645 395.92 134.131 396.208C134.616 396.496 135 396.883 135.283 397.368C135.571 397.853 135.715 398.392 135.715 398.984ZM142.379 401.728L143.867 402.536C143.505 403.043 143.043 403.448 142.483 403.752C141.929 404.056 141.326 404.208 140.675 404.208C139.939 404.208 139.267 404.019 138.659 403.64C138.057 403.261 137.574 402.755 137.211 402.12C136.854 401.48 136.675 400.773 136.675 400C136.675 399.413 136.779 398.867 136.987 398.36C137.195 397.848 137.481 397.4 137.843 397.016C138.211 396.627 138.638 396.323 139.123 396.104C139.609 395.885 140.126 395.776 140.675 395.776C141.326 395.776 141.929 395.928 142.483 396.232C143.043 396.536 143.505 396.944 143.867 397.456L142.379 398.264C142.155 397.997 141.894 397.795 141.595 397.656C141.297 397.512 140.99 397.44 140.675 397.44C140.238 397.44 139.841 397.56 139.483 397.8C139.131 398.035 138.851 398.347 138.643 398.736C138.441 399.12 138.339 399.541 138.339 400C138.339 400.453 138.443 400.875 138.651 401.264C138.859 401.648 139.139 401.957 139.491 402.192C139.849 402.427 140.243 402.544 140.675 402.544C141.006 402.544 141.321 402.469 141.619 402.32C141.918 402.171 142.171 401.973 142.379 401.728ZM148.628 404.208C147.892 404.208 147.22 404.019 146.612 403.64C146.01 403.261 145.527 402.755 145.164 402.12C144.807 401.48 144.628 400.773 144.628 400C144.628 399.413 144.732 398.867 144.94 398.36C145.148 397.848 145.434 397.4 145.796 397.016C146.164 396.627 146.591 396.323 147.076 396.104C147.562 395.885 148.079 395.776 148.628 395.776C149.242 395.776 149.804 395.904 150.316 396.16C150.828 396.411 151.266 396.76 151.628 397.208C151.991 397.651 152.258 398.163 152.428 398.744C152.599 399.32 152.65 399.933 152.58 400.584H146.412C146.482 400.952 146.615 401.285 146.812 401.584C147.015 401.877 147.271 402.109 147.58 402.28C147.895 402.451 148.244 402.539 148.628 402.544C149.034 402.544 149.402 402.443 149.732 402.24C150.068 402.037 150.343 401.757 150.556 401.4L152.244 401.792C151.924 402.501 151.442 403.083 150.796 403.536C150.151 403.984 149.428 404.208 148.628 404.208ZM146.356 399.312H150.9C150.847 398.928 150.711 398.581 150.492 398.272C150.279 397.957 150.01 397.709 149.684 397.528C149.364 397.341 149.012 397.248 148.628 397.248C148.25 397.248 147.898 397.339 147.572 397.52C147.252 397.701 146.986 397.949 146.772 398.264C146.564 398.573 146.426 398.923 146.356 399.312ZM35.5653 419.776C36.344 419.776 37.0506 419.965 37.6853 420.344C38.3253 420.723 38.8346 421.232 39.2133 421.872C39.592 422.507 39.7813 423.213 39.7813 423.992C39.7813 424.573 39.672 425.12 39.4533 425.632C39.2346 426.139 38.9306 426.587 38.5413 426.976C38.1573 427.36 37.7093 427.661 37.1973 427.88C36.6906 428.099 36.1466 428.208 35.5653 428.208C35.0053 428.208 34.5146 428.08 34.0933 427.824C33.6773 427.563 33.336 427.229 33.0693 426.824V428H31.4053V416H33.0693V421.16C33.336 420.749 33.6773 420.416 34.0933 420.16C34.5146 419.904 35.0053 419.776 35.5653 419.776ZM35.5493 426.592C36.0133 426.592 36.4373 426.475 36.8213 426.24C37.2053 426.005 37.5093 425.691 37.7333 425.296C37.9626 424.901 38.0773 424.467 38.0773 423.992C38.0773 423.507 37.9626 423.067 37.7333 422.672C37.504 422.277 37.1973 421.965 36.8133 421.736C36.4293 421.501 36.008 421.384 35.5493 421.384C35.0853 421.384 34.6773 421.501 34.3253 421.736C33.9733 421.971 33.6986 422.285 33.5013 422.68C33.304 423.075 33.2053 423.512 33.2053 423.992C33.2053 424.472 33.304 424.909 33.5013 425.304C33.6986 425.699 33.9733 426.013 34.3253 426.248C34.6773 426.477 35.0853 426.592 35.5493 426.592ZM44.5816 428.208C43.8456 428.208 43.1736 428.019 42.5656 427.64C41.9629 427.261 41.4802 426.755 41.1176 426.12C40.7602 425.48 40.5816 424.773 40.5816 424C40.5816 423.413 40.6856 422.867 40.8936 422.36C41.1016 421.848 41.3869 421.4 41.7496 421.016C42.1176 420.627 42.5442 420.323 43.0296 420.104C43.5149 419.885 44.0322 419.776 44.5816 419.776C45.1949 419.776 45.7576 419.904 46.2696 420.16C46.7816 420.411 47.2189 420.76 47.5816 421.208C47.9442 421.651 48.2109 422.163 48.3816 422.744C48.5522 423.32 48.6029 423.933 48.5336 424.584H42.3656C42.4349 424.952 42.5682 425.285 42.7656 425.584C42.9682 425.877 43.2242 426.109 43.5336 426.28C43.8482 426.451 44.1976 426.539 44.5816 426.544C44.9869 426.544 45.3549 426.443 45.6856 426.24C46.0216 426.037 46.2962 425.757 46.5096 425.4L48.1976 425.792C47.8776 426.501 47.3949 427.083 46.7496 427.536C46.1042 427.984 45.3816 428.208 44.5816 428.208ZM42.3096 423.312H46.8536C46.8002 422.928 46.6642 422.581 46.4456 422.272C46.2322 421.957 45.9629 421.709 45.6376 421.528C45.3176 421.341 44.9656 421.248 44.5816 421.248C44.2029 421.248 43.8509 421.339 43.5256 421.52C43.2056 421.701 42.9389 421.949 42.7256 422.264C42.5176 422.573 42.3789 422.923 42.3096 423.312ZM52.0551 418.184V420H54.3111V421.664H52.0551V428H50.3911V421.664H49.4391V420H50.3911V418.184C50.3911 417.747 50.4977 417.349 50.7111 416.992C50.9244 416.629 51.2097 416.341 51.5671 416.128C51.9297 415.915 52.3324 415.808 52.7751 415.808C53.0951 415.808 53.4071 415.872 53.7111 416C54.0151 416.128 54.2871 416.325 54.5271 416.592L53.3351 417.768C53.2764 417.672 53.1937 417.6 53.0871 417.552C52.9857 417.499 52.8817 417.472 52.7751 417.472C52.5777 417.472 52.4071 417.541 52.2631 417.68C52.1244 417.819 52.0551 417.987 52.0551 418.184ZM58.9566 428.208C58.2206 428.208 57.5486 428.019 56.9406 427.64C56.3379 427.261 55.8552 426.755 55.4926 426.12C55.1352 425.48 54.9566 424.773 54.9566 424C54.9566 423.413 55.0606 422.867 55.2686 422.36C55.4766 421.848 55.7619 421.4 56.1246 421.016C56.4926 420.627 56.9192 420.323 57.4046 420.104C57.8899 419.885 58.4072 419.776 58.9566 419.776C59.6926 419.776 60.3619 419.965 60.9646 420.344C61.5726 420.723 62.0552 421.232 62.4126 421.872C62.7752 422.512 62.9566 423.221 62.9566 424C62.9566 424.581 62.8526 425.125 62.6446 425.632C62.4366 426.139 62.1486 426.587 61.7806 426.976C61.4179 427.36 60.9939 427.661 60.5086 427.88C60.0286 428.099 59.5112 428.208 58.9566 428.208ZM58.9566 426.544C59.3992 426.544 59.7966 426.427 60.1486 426.192C60.5006 425.957 60.7779 425.648 60.9806 425.264C61.1886 424.875 61.2926 424.453 61.2926 424C61.2926 423.536 61.1859 423.109 60.9726 422.72C60.7646 422.331 60.4846 422.021 60.1326 421.792C59.7806 421.557 59.3886 421.44 58.9566 421.44C58.5192 421.44 58.1219 421.557 57.7646 421.792C57.4126 422.027 57.1326 422.339 56.9246 422.728C56.7219 423.117 56.6206 423.541 56.6206 424C56.6206 424.475 56.7272 424.904 56.9406 425.288C57.1539 425.672 57.4366 425.979 57.7886 426.208C58.1459 426.432 58.5352 426.544 58.9566 426.544ZM64.2491 428V420H65.9131V420.848C66.1904 420.517 66.5317 420.256 66.9371 420.064C67.3424 419.872 67.7797 419.776 68.2491 419.776C68.5477 419.776 68.8437 419.816 69.1371 419.896L68.4731 421.576C68.2651 421.496 68.0571 421.456 67.8491 421.456C67.4971 421.456 67.1744 421.544 66.8811 421.72C66.5877 421.891 66.3531 422.123 66.1771 422.416C66.0011 422.709 65.9131 423.035 65.9131 423.392V428H64.2491ZM73.2066 428.208C72.4706 428.208 71.7986 428.019 71.1906 427.64C70.5879 427.261 70.1052 426.755 69.7426 426.12C69.3852 425.48 69.2066 424.773 69.2066 424C69.2066 423.413 69.3106 422.867 69.5186 422.36C69.7266 421.848 70.0119 421.4 70.3746 421.016C70.7426 420.627 71.1692 420.323 71.6546 420.104C72.1399 419.885 72.6572 419.776 73.2066 419.776C73.8199 419.776 74.3826 419.904 74.8946 420.16C75.4066 420.411 75.8439 420.76 76.2066 421.208C76.5692 421.651 76.8359 422.163 77.0066 422.744C77.1772 423.32 77.2279 423.933 77.1586 424.584H70.9906C71.0599 424.952 71.1932 425.285 71.3906 425.584C71.5932 425.877 71.8492 426.109 72.1586 426.28C72.4732 426.451 72.8226 426.539 73.2066 426.544C73.6119 426.544 73.9799 426.443 74.3106 426.24C74.6466 426.037 74.9212 425.757 75.1346 425.4L76.8226 425.792C76.5026 426.501 76.0199 427.083 75.3746 427.536C74.7292 427.984 74.0066 428.208 73.2066 428.208ZM70.9346 423.312H75.4786C75.4252 422.928 75.2892 422.581 75.0706 422.272C74.8572 421.957 74.5879 421.709 74.2626 421.528C73.9426 421.341 73.5906 421.248 73.2066 421.248C72.8279 421.248 72.4759 421.339 72.1506 421.52C71.8306 421.701 71.5639 421.949 71.3506 422.264C71.1426 422.573 71.0039 422.923 70.9346 423.312ZM82.7078 428V416.8H84.3718V428H82.7078ZM93.7303 422.984V428H92.0663V423.392C92.0663 423.035 91.9783 422.709 91.8023 422.416C91.6316 422.123 91.3996 421.891 91.1063 421.72C90.8183 421.544 90.493 421.456 90.1303 421.456C89.7783 421.456 89.4556 421.544 89.1623 421.72C88.869 421.891 88.6343 422.123 88.4583 422.416C88.2823 422.709 88.1943 423.035 88.1943 423.392V428H86.5303V420H88.1943V420.848C88.4716 420.517 88.813 420.256 89.2183 420.064C89.6236 419.872 90.061 419.776 90.5303 419.776C91.1223 419.776 91.661 419.92 92.1463 420.208C92.6316 420.496 93.0156 420.883 93.2983 421.368C93.5863 421.853 93.7303 422.392 93.7303 422.984ZM99.6063 428H97.4703L94.5503 419.984H96.3263L98.5343 426.08L100.75 419.984H102.518L99.6063 428ZM103.749 420H105.413V428H103.749V420ZM104.597 418.84C104.341 418.84 104.128 418.757 103.957 418.592C103.786 418.427 103.701 418.219 103.701 417.968C103.701 417.723 103.786 417.517 103.957 417.352C104.128 417.181 104.338 417.096 104.589 417.096C104.834 417.096 105.042 417.181 105.213 417.352C105.384 417.517 105.469 417.723 105.469 417.968C105.469 418.219 105.384 418.427 105.213 418.592C105.048 418.757 104.842 418.84 104.597 418.84ZM109.618 428.152C109.196 428.125 108.786 428.04 108.386 427.896C107.986 427.752 107.634 427.557 107.33 427.312C107.031 427.061 106.807 426.768 106.658 426.432L108.074 425.824C108.143 425.968 108.263 426.109 108.434 426.248C108.61 426.387 108.815 426.501 109.05 426.592C109.284 426.677 109.53 426.72 109.786 426.72C110.036 426.72 110.268 426.685 110.482 426.616C110.7 426.541 110.879 426.429 111.018 426.28C111.156 426.131 111.226 425.952 111.226 425.744C111.226 425.509 111.146 425.328 110.986 425.2C110.831 425.067 110.636 424.965 110.402 424.896C110.167 424.827 109.932 424.76 109.698 424.696C109.175 424.579 108.695 424.419 108.258 424.216C107.826 424.008 107.482 423.744 107.226 423.424C106.97 423.099 106.842 422.701 106.842 422.232C106.842 421.72 106.98 421.277 107.258 420.904C107.535 420.525 107.898 420.235 108.346 420.032C108.799 419.829 109.282 419.728 109.794 419.728C110.434 419.728 111.02 419.864 111.554 420.136C112.087 420.408 112.495 420.781 112.778 421.256L111.458 422.04C111.378 421.88 111.258 421.736 111.098 421.608C110.938 421.48 110.756 421.379 110.554 421.304C110.351 421.224 110.14 421.179 109.922 421.168C109.65 421.157 109.396 421.189 109.162 421.264C108.932 421.333 108.748 421.445 108.61 421.6C108.471 421.755 108.402 421.952 108.402 422.192C108.402 422.427 108.484 422.603 108.65 422.72C108.815 422.832 109.023 422.923 109.274 422.992C109.53 423.061 109.791 423.139 110.058 423.224C110.532 423.373 110.978 423.557 111.394 423.776C111.81 423.989 112.146 424.253 112.402 424.568C112.658 424.883 112.78 425.267 112.77 425.72C112.77 426.221 112.618 426.661 112.314 427.04C112.015 427.419 111.626 427.707 111.146 427.904C110.666 428.101 110.156 428.184 109.618 428.152ZM117.55 428.208C116.814 428.208 116.142 428.019 115.534 427.64C114.932 427.261 114.449 426.755 114.086 426.12C113.729 425.48 113.55 424.773 113.55 424C113.55 423.413 113.654 422.867 113.862 422.36C114.07 421.848 114.356 421.4 114.718 421.016C115.086 420.627 115.513 420.323 115.998 420.104C116.484 419.885 117.001 419.776 117.55 419.776C118.286 419.776 118.956 419.965 119.558 420.344C120.166 420.723 120.649 421.232 121.006 421.872C121.369 422.512 121.55 423.221 121.55 424C121.55 424.581 121.446 425.125 121.238 425.632C121.03 426.139 120.742 426.587 120.374 426.976C120.012 427.36 119.588 427.661 119.102 427.88C118.622 428.099 118.105 428.208 117.55 428.208ZM117.55 426.544C117.993 426.544 118.39 426.427 118.742 426.192C119.094 425.957 119.372 425.648 119.574 425.264C119.782 424.875 119.886 424.453 119.886 424C119.886 423.536 119.78 423.109 119.566 422.72C119.358 422.331 119.078 422.021 118.726 421.792C118.374 421.557 117.982 421.44 117.55 421.44C117.113 421.44 116.716 421.557 116.358 421.792C116.006 422.027 115.726 422.339 115.518 422.728C115.316 423.117 115.214 423.541 115.214 424C115.214 424.475 115.321 424.904 115.534 425.288C115.748 425.672 116.03 425.979 116.382 426.208C116.74 426.432 117.129 426.544 117.55 426.544ZM122.843 428V420H124.507V420.848C124.784 420.517 125.125 420.256 125.531 420.064C125.936 419.872 126.373 419.776 126.843 419.776C127.141 419.776 127.437 419.816 127.731 419.896L127.067 421.576C126.859 421.496 126.651 421.456 126.443 421.456C126.091 421.456 125.768 421.544 125.475 421.72C125.181 421.891 124.947 422.123 124.771 422.416C124.595 422.709 124.507 423.035 124.507 423.392V428H122.843ZM134.135 420H135.911L131.527 432H129.759L131.207 428L128.335 420H130.151L132.039 425.72L134.135 420Z" fill="#25272C"/>
<path d="M173.39 64V54.464H172.054L172.51 52.8H175.054V64H173.39ZM180.68 64.208C179.971 64.208 179.328 64.0373 178.752 63.696C178.181 63.3493 177.728 62.8907 177.392 62.32C177.061 61.744 176.896 61.1147 176.896 60.432H178.56C178.56 60.8213 178.656 61.176 178.848 61.496C179.04 61.816 179.296 62.072 179.616 62.264C179.936 62.4507 180.291 62.544 180.68 62.544C181.064 62.544 181.416 62.4507 181.736 62.264C182.056 62.072 182.312 61.816 182.504 61.496C182.696 61.176 182.792 60.8213 182.792 60.432C182.792 60.0427 182.704 59.688 182.528 59.368C182.352 59.0427 182.088 58.784 181.736 58.592C181.384 58.3947 180.936 58.296 180.392 58.296H177.568L178.704 52.8H184.12V54.464H180.056L179.616 56.632L180.584 56.648C181.347 56.664 182.016 56.84 182.592 57.176C183.173 57.5067 183.629 57.9547 183.96 58.52C184.291 59.08 184.456 59.7173 184.456 60.432C184.456 60.9493 184.357 61.4373 184.16 61.896C183.963 62.3493 183.691 62.7493 183.344 63.096C183.003 63.4427 182.603 63.7147 182.144 63.912C181.691 64.1093 181.203 64.208 180.68 64.208ZM186.374 58.368H191.494V60.032H186.374V58.368ZM196.493 64.208C195.816 64.208 195.208 64.0507 194.669 63.736C194.136 63.4213 193.714 63 193.405 62.472C193.096 61.944 192.941 61.3573 192.941 60.712H194.605C194.605 61.048 194.685 61.3547 194.845 61.632C195.005 61.9093 195.226 62.1307 195.509 62.296C195.792 62.4613 196.12 62.544 196.493 62.544C196.829 62.544 197.141 62.4613 197.429 62.296C197.717 62.1307 197.949 61.9093 198.125 61.632C198.301 61.3547 198.389 61.048 198.389 60.712C198.389 60.2853 198.277 59.928 198.053 59.64C197.829 59.352 197.517 59.1387 197.117 59C196.722 58.856 196.266 58.784 195.749 58.784V57.472C196.453 57.472 197.016 57.3333 197.437 57.056C197.858 56.7787 198.069 56.3653 198.069 55.816C198.069 55.528 197.992 55.2667 197.837 55.032C197.688 54.792 197.488 54.6027 197.237 54.464C196.992 54.32 196.728 54.248 196.445 54.248C196.152 54.248 195.869 54.32 195.597 54.464C195.33 54.6027 195.112 54.792 194.941 55.032C194.77 55.2667 194.685 55.528 194.685 55.816H193.021C193.021 55.3733 193.112 54.9573 193.293 54.568C193.48 54.1733 193.73 53.8293 194.045 53.536C194.365 53.2373 194.728 53.0053 195.133 52.84C195.544 52.6693 195.973 52.584 196.421 52.584C197.008 52.584 197.552 52.7307 198.053 53.024C198.56 53.312 198.965 53.7013 199.269 54.192C199.578 54.6773 199.733 55.2187 199.733 55.816C199.733 56.2907 199.616 56.7413 199.381 57.168C199.152 57.5893 198.832 57.888 198.421 58.064C198.778 58.192 199.077 58.3947 199.317 58.672C199.562 58.944 199.746 59.2587 199.869 59.616C199.992 59.968 200.053 60.3333 200.053 60.712C200.053 61.352 199.89 61.9387 199.565 62.472C199.24 63 198.805 63.4213 198.261 63.736C197.722 64.0507 197.133 64.208 196.493 64.208ZM205.363 64.208C204.702 64.208 204.104 64.0587 203.571 63.76C203.043 63.456 202.587 63.0373 202.203 62.504C201.819 61.9707 201.526 61.3547 201.323 60.656C201.12 59.952 201.019 59.2 201.019 58.4C201.019 57.6 201.12 56.848 201.323 56.144C201.526 55.44 201.819 54.824 202.203 54.296C202.587 53.7627 203.043 53.3467 203.571 53.048C204.104 52.744 204.702 52.592 205.363 52.592C206.014 52.592 206.606 52.744 207.139 53.048C207.672 53.3467 208.126 53.7627 208.499 54.296C208.878 54.824 209.168 55.44 209.371 56.144C209.574 56.848 209.675 57.6 209.675 58.4C209.675 59.2 209.574 59.952 209.371 60.656C209.168 61.3547 208.878 61.9707 208.499 62.504C208.126 63.0373 207.672 63.456 207.139 63.76C206.606 64.0587 206.014 64.208 205.363 64.208ZM205.363 62.544C205.976 62.544 206.486 62.352 206.891 61.968C207.302 61.5787 207.608 61.0693 207.811 60.44C208.014 59.8107 208.115 59.1307 208.115 58.4C208.115 57.632 208.008 56.936 207.795 56.312C207.587 55.6827 207.278 55.184 206.867 54.816C206.462 54.4427 205.96 54.256 205.363 54.256C204.888 54.256 204.475 54.368 204.123 54.592C203.776 54.816 203.488 55.1227 203.259 55.512C203.035 55.9013 202.864 56.344 202.747 56.84C202.635 57.336 202.579 57.856 202.579 58.4C202.579 59.1307 202.683 59.8107 202.891 60.44C203.099 61.0693 203.408 61.5787 203.819 61.968C204.235 62.352 204.75 62.544 205.363 62.544ZM211.668 64L218.132 52.8H220.052L213.588 64H211.668ZM213.02 57.496C212.615 57.496 212.242 57.3973 211.9 57.2C211.564 56.9973 211.295 56.728 211.092 56.392C210.89 56.0507 210.788 55.6747 210.788 55.264C210.788 54.8373 210.89 54.456 211.092 54.12C211.3 53.784 211.572 53.52 211.908 53.328C212.25 53.1307 212.62 53.032 213.02 53.032C213.431 53.032 213.804 53.1333 214.14 53.336C214.476 53.5333 214.746 53.8 214.948 54.136C215.151 54.472 215.252 54.848 215.252 55.264C215.252 55.6853 215.148 56.064 214.94 56.4C214.738 56.736 214.466 57.0027 214.124 57.2C213.788 57.3973 213.42 57.496 213.02 57.496ZM213.02 56.32C213.319 56.32 213.57 56.2187 213.772 56.016C213.975 55.808 214.076 55.5573 214.076 55.264C214.076 54.9653 213.975 54.7147 213.772 54.512C213.57 54.304 213.319 54.2 213.02 54.2C212.727 54.2 212.476 54.304 212.268 54.512C212.066 54.7147 211.964 54.9653 211.964 55.264C211.964 55.5573 212.066 55.808 212.268 56.016C212.476 56.2187 212.727 56.32 213.02 56.32ZM218.716 63.784C218.3 63.784 217.922 63.68 217.58 63.472C217.244 63.2587 216.975 62.984 216.772 62.648C216.575 62.3067 216.476 61.9387 216.476 61.544C216.476 61.128 216.58 60.752 216.788 60.416C216.996 60.0747 217.268 59.8053 217.604 59.608C217.946 59.4053 218.316 59.304 218.716 59.304C219.138 59.304 219.516 59.408 219.852 59.616C220.188 59.824 220.455 60.0987 220.652 60.44C220.85 60.7813 220.948 61.1493 220.948 61.544C220.948 61.9547 220.847 62.3307 220.644 62.672C220.447 63.008 220.178 63.2773 219.836 63.48C219.5 63.6827 219.127 63.784 218.716 63.784ZM218.716 62.608C219.004 62.608 219.252 62.504 219.46 62.296C219.668 62.088 219.772 61.8373 219.772 61.544C219.772 61.2507 219.668 61 219.46 60.792C219.252 60.584 219.004 60.48 218.716 60.48C218.423 60.48 218.17 60.584 217.956 60.792C217.748 61 217.644 61.2507 217.644 61.544C217.644 61.8373 217.748 62.088 217.956 62.296C218.17 62.504 218.423 62.608 218.716 62.608Z" fill="#25272C"/>
<path d="M294.346 392.8V394.464H290.778V404H289.114V394.464H285.554V392.8H294.346ZM298.253 404.208C297.517 404.208 296.845 404.019 296.237 403.64C295.635 403.261 295.152 402.755 294.789 402.12C294.432 401.48 294.253 400.773 294.253 400C294.253 399.413 294.357 398.867 294.565 398.36C294.773 397.848 295.059 397.4 295.421 397.016C295.789 396.627 296.216 396.323 296.701 396.104C297.187 395.885 297.704 395.776 298.253 395.776C298.867 395.776 299.429 395.904 299.941 396.16C300.453 396.411 300.891 396.76 301.253 397.208C301.616 397.651 301.883 398.163 302.053 398.744C302.224 399.32 302.275 399.933 302.205 400.584H296.037C296.107 400.952 296.24 401.285 296.437 401.584C296.64 401.877 296.896 402.109 297.205 402.28C297.52 402.451 297.869 402.539 298.253 402.544C298.659 402.544 299.027 402.443 299.357 402.24C299.693 402.037 299.968 401.757 300.181 401.4L301.869 401.792C301.549 402.501 301.067 403.083 300.421 403.536C299.776 403.984 299.053 404.208 298.253 404.208ZM295.981 399.312H300.525C300.472 398.928 300.336 398.581 300.117 398.272C299.904 397.957 299.635 397.709 299.309 397.528C298.989 397.341 298.637 397.248 298.253 397.248C297.875 397.248 297.523 397.339 297.197 397.52C296.877 397.701 296.611 397.949 296.397 398.264C296.189 398.573 296.051 398.923 295.981 399.312ZM309.739 396H311.403V404H309.731L309.667 402.84C309.432 403.251 309.115 403.581 308.715 403.832C308.315 404.083 307.843 404.208 307.299 404.208C306.712 404.208 306.16 404.099 305.643 403.88C305.125 403.656 304.669 403.347 304.275 402.952C303.885 402.557 303.581 402.104 303.363 401.592C303.144 401.075 303.035 400.52 303.035 399.928C303.035 399.357 303.141 398.821 303.355 398.32C303.568 397.813 303.864 397.371 304.243 396.992C304.621 396.613 305.059 396.317 305.555 396.104C306.056 395.885 306.592 395.776 307.163 395.776C307.744 395.776 308.256 395.909 308.699 396.176C309.147 396.437 309.517 396.773 309.811 397.184L309.739 396ZM307.259 402.6C307.728 402.6 308.139 402.485 308.491 402.256C308.843 402.021 309.115 401.707 309.307 401.312C309.504 400.917 309.603 400.48 309.603 400C309.603 399.515 309.504 399.075 309.307 398.68C309.109 398.285 308.835 397.973 308.483 397.744C308.136 397.509 307.728 397.392 307.259 397.392C306.795 397.392 306.371 397.509 305.987 397.744C305.603 397.979 305.299 398.293 305.075 398.688C304.851 399.083 304.739 399.52 304.739 400C304.739 400.485 304.853 400.925 305.083 401.32C305.317 401.709 305.624 402.021 306.003 402.256C306.387 402.485 306.805 402.6 307.259 402.6ZM312.999 404V396H314.663V396.848C314.94 396.517 315.279 396.256 315.679 396.064C316.084 395.872 316.522 395.776 316.991 395.776C317.562 395.776 318.087 395.915 318.567 396.192C319.047 396.464 319.428 396.827 319.711 397.28C319.994 396.827 320.37 396.464 320.839 396.192C321.314 395.915 321.836 395.776 322.407 395.776C322.999 395.776 323.538 395.92 324.023 396.208C324.508 396.496 324.895 396.883 325.183 397.368C325.471 397.853 325.615 398.392 325.615 398.984V404H323.951V399.408C323.951 399.056 323.866 398.733 323.695 398.44C323.524 398.147 323.295 397.909 323.007 397.728C322.719 397.547 322.399 397.456 322.047 397.456C321.695 397.456 321.375 397.541 321.087 397.712C320.799 397.883 320.57 398.115 320.399 398.408C320.228 398.701 320.143 399.035 320.143 399.408V404H318.479V399.408C318.479 399.035 318.394 398.701 318.223 398.408C318.052 398.115 317.82 397.883 317.527 397.712C317.239 397.541 316.919 397.456 316.567 397.456C316.22 397.456 315.9 397.547 315.607 397.728C315.319 397.909 315.09 398.147 314.919 398.44C314.748 398.733 314.663 399.056 314.663 399.408V404H312.999ZM332.726 408H331.062V396H332.726V397.176C332.992 396.765 333.334 396.432 333.75 396.176C334.166 395.92 334.656 395.792 335.222 395.792C335.803 395.792 336.347 395.901 336.854 396.12C337.366 396.339 337.814 396.643 338.198 397.032C338.582 397.416 338.883 397.861 339.102 398.368C339.32 398.875 339.43 399.419 339.43 400C339.43 400.581 339.32 401.128 339.102 401.64C338.883 402.152 338.582 402.603 338.198 402.992C337.814 403.376 337.366 403.677 336.854 403.896C336.347 404.115 335.803 404.224 335.222 404.224C334.656 404.224 334.166 404.096 333.75 403.84C333.334 403.579 332.992 403.245 332.726 402.84V408ZM335.206 397.4C334.742 397.4 334.334 397.517 333.982 397.752C333.63 397.987 333.355 398.301 333.158 398.696C332.96 399.085 332.862 399.52 332.862 400C332.862 400.48 332.96 400.917 333.158 401.312C333.355 401.707 333.63 402.021 333.982 402.256C334.334 402.491 334.742 402.608 335.206 402.608C335.664 402.608 336.086 402.493 336.47 402.264C336.854 402.029 337.16 401.715 337.39 401.32C337.619 400.925 337.734 400.485 337.734 400C337.734 399.525 337.619 399.091 337.39 398.696C337.166 398.301 336.862 397.987 336.478 397.752C336.094 397.517 335.67 397.4 335.206 397.4ZM344.238 404.208C343.502 404.208 342.83 404.019 342.222 403.64C341.619 403.261 341.136 402.755 340.774 402.12C340.416 401.48 340.238 400.773 340.238 400C340.238 399.413 340.342 398.867 340.55 398.36C340.758 397.848 341.043 397.4 341.406 397.016C341.774 396.627 342.2 396.323 342.686 396.104C343.171 395.885 343.688 395.776 344.238 395.776C344.851 395.776 345.414 395.904 345.926 396.16C346.438 396.411 346.875 396.76 347.238 397.208C347.6 397.651 347.867 398.163 348.038 398.744C348.208 399.32 348.259 399.933 348.19 400.584H342.022C342.091 400.952 342.224 401.285 342.422 401.584C342.624 401.877 342.88 402.109 343.19 402.28C343.504 402.451 343.854 402.539 344.238 402.544C344.643 402.544 345.011 402.443 345.342 402.24C345.678 402.037 345.952 401.757 346.166 401.4L347.854 401.792C347.534 402.501 347.051 403.083 346.406 403.536C345.76 403.984 345.038 404.208 344.238 404.208ZM341.966 399.312H346.51C346.456 398.928 346.32 398.581 346.102 398.272C345.888 397.957 345.619 397.709 345.294 397.528C344.974 397.341 344.622 397.248 344.238 397.248C343.859 397.248 343.507 397.339 343.182 397.52C342.862 397.701 342.595 397.949 342.382 398.264C342.174 398.573 342.035 398.923 341.966 399.312ZM349.515 404V396H351.179V396.848C351.456 396.517 351.797 396.256 352.203 396.064C352.608 395.872 353.045 395.776 353.515 395.776C353.813 395.776 354.109 395.816 354.403 395.896L353.739 397.576C353.531 397.496 353.323 397.456 353.115 397.456C352.763 397.456 352.44 397.544 352.147 397.72C351.853 397.891 351.619 398.123 351.443 398.416C351.267 398.709 351.179 399.035 351.179 399.392V404H349.515ZM357.899 394.184V396H360.155V397.664H357.899V404H356.235V397.664H355.283V396H356.235V394.184C356.235 393.747 356.341 393.349 356.555 392.992C356.768 392.629 357.053 392.341 357.411 392.128C357.773 391.915 358.176 391.808 358.619 391.808C358.939 391.808 359.251 391.872 359.555 392C359.859 392.128 360.131 392.325 360.371 392.592L359.179 393.768C359.12 393.672 359.037 393.6 358.931 393.552C358.829 393.499 358.725 393.472 358.619 393.472C358.421 393.472 358.251 393.541 358.107 393.68C357.968 393.819 357.899 393.987 357.899 394.184ZM364.8 404.208C364.064 404.208 363.392 404.019 362.784 403.64C362.182 403.261 361.699 402.755 361.336 402.12C360.979 401.48 360.8 400.773 360.8 400C360.8 399.413 360.904 398.867 361.112 398.36C361.32 397.848 361.606 397.4 361.968 397.016C362.336 396.627 362.763 396.323 363.248 396.104C363.734 395.885 364.251 395.776 364.8 395.776C365.536 395.776 366.206 395.965 366.808 396.344C367.416 396.723 367.899 397.232 368.256 397.872C368.619 398.512 368.8 399.221 368.8 400C368.8 400.581 368.696 401.125 368.488 401.632C368.28 402.139 367.992 402.587 367.624 402.976C367.262 403.36 366.838 403.661 366.352 403.88C365.872 404.099 365.355 404.208 364.8 404.208ZM364.8 402.544C365.243 402.544 365.64 402.427 365.992 402.192C366.344 401.957 366.622 401.648 366.824 401.264C367.032 400.875 367.136 400.453 367.136 400C367.136 399.536 367.03 399.109 366.816 398.72C366.608 398.331 366.328 398.021 365.976 397.792C365.624 397.557 365.232 397.44 364.8 397.44C364.363 397.44 363.966 397.557 363.608 397.792C363.256 398.027 362.976 398.339 362.768 398.728C362.566 399.117 362.464 399.541 362.464 400C362.464 400.475 362.571 400.904 362.784 401.288C362.998 401.672 363.28 401.979 363.632 402.208C363.99 402.432 364.379 402.544 364.8 402.544ZM370.093 404V396H371.757V396.848C372.034 396.517 372.375 396.256 372.781 396.064C373.186 395.872 373.623 395.776 374.093 395.776C374.391 395.776 374.687 395.816 374.981 395.896L374.317 397.576C374.109 397.496 373.901 397.456 373.693 397.456C373.341 397.456 373.018 397.544 372.725 397.72C372.431 397.891 372.197 398.123 372.021 398.416C371.845 398.709 371.757 399.035 371.757 399.392V404H370.093ZM375.968 404V396H377.632V396.848C377.909 396.517 378.248 396.256 378.648 396.064C379.053 395.872 379.49 395.776 379.96 395.776C380.53 395.776 381.056 395.915 381.536 396.192C382.016 396.464 382.397 396.827 382.68 397.28C382.962 396.827 383.338 396.464 383.808 396.192C384.282 395.915 384.805 395.776 385.376 395.776C385.968 395.776 386.506 395.92 386.992 396.208C387.477 396.496 387.864 396.883 388.152 397.368C388.44 397.853 388.584 398.392 388.584 398.984V404H386.92V399.408C386.92 399.056 386.834 398.733 386.664 398.44C386.493 398.147 386.264 397.909 385.976 397.728C385.688 397.547 385.368 397.456 385.016 397.456C384.664 397.456 384.344 397.541 384.056 397.712C383.768 397.883 383.538 398.115 383.368 398.408C383.197 398.701 383.112 399.035 383.112 399.408V404H381.448V399.408C381.448 399.035 381.362 398.701 381.192 398.408C381.021 398.115 380.789 397.883 380.496 397.712C380.208 397.541 379.888 397.456 379.536 397.456C379.189 397.456 378.869 397.547 378.576 397.728C378.288 397.909 378.058 398.147 377.888 398.44C377.717 398.733 377.632 399.056 377.632 399.408V404H375.968ZM396.254 396H397.918V404H396.246L396.182 402.84C395.948 403.251 395.63 403.581 395.23 403.832C394.83 404.083 394.358 404.208 393.814 404.208C393.228 404.208 392.676 404.099 392.158 403.88C391.641 403.656 391.185 403.347 390.79 402.952C390.401 402.557 390.097 402.104 389.878 401.592C389.66 401.075 389.55 400.52 389.55 399.928C389.55 399.357 389.657 398.821 389.87 398.32C390.084 397.813 390.38 397.371 390.758 396.992C391.137 396.613 391.574 396.317 392.07 396.104C392.572 395.885 393.108 395.776 393.678 395.776C394.26 395.776 394.772 395.909 395.214 396.176C395.662 396.437 396.033 396.773 396.326 397.184L396.254 396ZM393.774 402.6C394.244 402.6 394.654 402.485 395.006 402.256C395.358 402.021 395.63 401.707 395.822 401.312C396.02 400.917 396.118 400.48 396.118 400C396.118 399.515 396.02 399.075 395.822 398.68C395.625 398.285 395.35 397.973 394.998 397.744C394.652 397.509 394.244 397.392 393.774 397.392C393.31 397.392 392.886 397.509 392.502 397.744C392.118 397.979 391.814 398.293 391.59 398.688C391.366 399.083 391.254 399.52 391.254 400C391.254 400.485 391.369 400.925 391.598 401.32C391.833 401.709 392.14 402.021 392.518 402.256C392.902 402.485 393.321 402.6 393.774 402.6ZM406.715 398.984V404H405.051V399.392C405.051 399.035 404.963 398.709 404.787 398.416C404.616 398.123 404.384 397.891 404.091 397.72C403.803 397.544 403.477 397.456 403.115 397.456C402.763 397.456 402.44 397.544 402.147 397.72C401.853 397.891 401.619 398.123 401.443 398.416C401.267 398.709 401.179 399.035 401.179 399.392V404H399.515V396H401.179V396.848C401.456 396.517 401.797 396.256 402.203 396.064C402.608 395.872 403.045 395.776 403.515 395.776C404.107 395.776 404.645 395.92 405.131 396.208C405.616 396.496 406 396.883 406.283 397.368C406.571 397.853 406.715 398.392 406.715 398.984ZM413.379 401.728L414.867 402.536C414.505 403.043 414.043 403.448 413.483 403.752C412.929 404.056 412.326 404.208 411.675 404.208C410.939 404.208 410.267 404.019 409.659 403.64C409.057 403.261 408.574 402.755 408.211 402.12C407.854 401.48 407.675 400.773 407.675 400C407.675 399.413 407.779 398.867 407.987 398.36C408.195 397.848 408.481 397.4 408.843 397.016C409.211 396.627 409.638 396.323 410.123 396.104C410.609 395.885 411.126 395.776 411.675 395.776C412.326 395.776 412.929 395.928 413.483 396.232C414.043 396.536 414.505 396.944 414.867 397.456L413.379 398.264C413.155 397.997 412.894 397.795 412.595 397.656C412.297 397.512 411.99 397.44 411.675 397.44C411.238 397.44 410.841 397.56 410.483 397.8C410.131 398.035 409.851 398.347 409.643 398.736C409.441 399.12 409.339 399.541 409.339 400C409.339 400.453 409.443 400.875 409.651 401.264C409.859 401.648 410.139 401.957 410.491 402.192C410.849 402.427 411.243 402.544 411.675 402.544C412.006 402.544 412.321 402.469 412.619 402.32C412.918 402.171 413.171 401.973 413.379 401.728ZM419.628 404.208C418.892 404.208 418.22 404.019 417.612 403.64C417.01 403.261 416.527 402.755 416.164 402.12C415.807 401.48 415.628 400.773 415.628 400C415.628 399.413 415.732 398.867 415.94 398.36C416.148 397.848 416.434 397.4 416.796 397.016C417.164 396.627 417.591 396.323 418.076 396.104C418.562 395.885 419.079 395.776 419.628 395.776C420.242 395.776 420.804 395.904 421.316 396.16C421.828 396.411 422.266 396.76 422.628 397.208C422.991 397.651 423.258 398.163 423.428 398.744C423.599 399.32 423.65 399.933 423.58 400.584H417.412C417.482 400.952 417.615 401.285 417.812 401.584C418.015 401.877 418.271 402.109 418.58 402.28C418.895 402.451 419.244 402.539 419.628 402.544C420.034 402.544 420.402 402.443 420.732 402.24C421.068 402.037 421.343 401.757 421.556 401.4L423.244 401.792C422.924 402.501 422.442 403.083 421.796 403.536C421.151 403.984 420.428 404.208 419.628 404.208ZM417.356 399.312H421.9C421.847 398.928 421.711 398.581 421.492 398.272C421.279 397.957 421.01 397.709 420.684 397.528C420.364 397.341 420.012 397.248 419.628 397.248C419.25 397.248 418.898 397.339 418.572 397.52C418.252 397.701 417.986 397.949 417.772 398.264C417.564 398.573 417.426 398.923 417.356 399.312ZM314.418 420H316.082V428H314.41L314.346 426.84C314.112 427.251 313.794 427.581 313.394 427.832C312.994 428.083 312.522 428.208 311.978 428.208C311.392 428.208 310.84 428.099 310.322 427.88C309.805 427.656 309.349 427.347 308.954 426.952C308.565 426.557 308.261 426.104 308.042 425.592C307.824 425.075 307.714 424.52 307.714 423.928C307.714 423.357 307.821 422.821 308.034 422.32C308.248 421.813 308.544 421.371 308.922 420.992C309.301 420.613 309.738 420.317 310.234 420.104C310.736 419.885 311.272 419.776 311.842 419.776C312.424 419.776 312.936 419.909 313.378 420.176C313.826 420.437 314.197 420.773 314.49 421.184L314.418 420ZM311.938 426.6C312.408 426.6 312.818 426.485 313.17 426.256C313.522 426.021 313.794 425.707 313.986 425.312C314.184 424.917 314.282 424.48 314.282 424C314.282 423.515 314.184 423.075 313.986 422.68C313.789 422.285 313.514 421.973 313.162 421.744C312.816 421.509 312.408 421.392 311.938 421.392C311.474 421.392 311.05 421.509 310.666 421.744C310.282 421.979 309.978 422.293 309.754 422.688C309.53 423.083 309.418 423.52 309.418 424C309.418 424.485 309.533 424.925 309.762 425.32C309.997 425.709 310.304 426.021 310.682 426.256C311.066 426.485 311.485 426.6 311.938 426.6ZM319.735 418.184V420H321.991V421.664H319.735V428H318.071V421.664H317.119V420H318.071V418.184C318.071 417.747 318.177 417.349 318.391 416.992C318.604 416.629 318.889 416.341 319.247 416.128C319.609 415.915 320.012 415.808 320.455 415.808C320.775 415.808 321.087 415.872 321.391 416C321.695 416.128 321.967 416.325 322.207 416.592L321.015 417.768C320.956 417.672 320.873 417.6 320.767 417.552C320.665 417.499 320.561 417.472 320.455 417.472C320.257 417.472 320.087 417.541 319.943 417.68C319.804 417.819 319.735 417.987 319.735 418.184ZM327.778 421.664H326.098L326.09 428H324.426L324.434 421.664H323.162V420H324.434L324.426 417.488H326.09L326.098 420H327.778V421.664ZM332.543 428.208C331.807 428.208 331.135 428.019 330.527 427.64C329.924 427.261 329.441 426.755 329.079 426.12C328.721 425.48 328.543 424.773 328.543 424C328.543 423.413 328.647 422.867 328.855 422.36C329.063 421.848 329.348 421.4 329.711 421.016C330.079 420.627 330.505 420.323 330.991 420.104C331.476 419.885 331.993 419.776 332.543 419.776C333.156 419.776 333.719 419.904 334.231 420.16C334.743 420.411 335.18 420.76 335.543 421.208C335.905 421.651 336.172 422.163 336.343 422.744C336.513 423.32 336.564 423.933 336.495 424.584H330.327C330.396 424.952 330.529 425.285 330.727 425.584C330.929 425.877 331.185 426.109 331.495 426.28C331.809 426.451 332.159 426.539 332.543 426.544C332.948 426.544 333.316 426.443 333.647 426.24C333.983 426.037 334.257 425.757 334.471 425.4L336.159 425.792C335.839 426.501 335.356 427.083 334.711 427.536C334.065 427.984 333.343 428.208 332.543 428.208ZM330.271 423.312H334.815C334.761 422.928 334.625 422.581 334.407 422.272C334.193 421.957 333.924 421.709 333.599 421.528C333.279 421.341 332.927 421.248 332.543 421.248C332.164 421.248 331.812 421.339 331.487 421.52C331.167 421.701 330.9 421.949 330.687 422.264C330.479 422.573 330.34 422.923 330.271 423.312ZM337.819 428V420H339.483V420.848C339.761 420.517 340.102 420.256 340.507 420.064C340.913 419.872 341.35 419.776 341.819 419.776C342.118 419.776 342.414 419.816 342.707 419.896L342.043 421.576C341.835 421.496 341.627 421.456 341.419 421.456C341.067 421.456 340.745 421.544 340.451 421.72C340.158 421.891 339.923 422.123 339.747 422.416C339.571 422.709 339.483 423.035 339.483 423.392V428H337.819ZM347.919 428V416.8H349.583V428H347.919ZM358.941 422.984V428H357.277V423.392C357.277 423.035 357.189 422.709 357.013 422.416C356.843 422.123 356.611 421.891 356.317 421.72C356.029 421.544 355.704 421.456 355.341 421.456C354.989 421.456 354.667 421.544 354.373 421.72C354.08 421.891 353.845 422.123 353.669 422.416C353.493 422.709 353.405 423.035 353.405 423.392V428H351.741V420H353.405V420.848C353.683 420.517 354.024 420.256 354.429 420.064C354.835 419.872 355.272 419.776 355.741 419.776C356.333 419.776 356.872 419.92 357.357 420.208C357.843 420.496 358.227 420.883 358.509 421.368C358.797 421.853 358.941 422.392 358.941 422.984ZM364.817 428H362.681L359.761 419.984H361.537L363.745 426.08L365.961 419.984H367.729L364.817 428ZM368.96 420H370.624V428H368.96V420ZM369.808 418.84C369.552 418.84 369.339 418.757 369.168 418.592C368.997 418.427 368.912 418.219 368.912 417.968C368.912 417.723 368.997 417.517 369.168 417.352C369.339 417.181 369.549 417.096 369.8 417.096C370.045 417.096 370.253 417.181 370.424 417.352C370.595 417.517 370.68 417.723 370.68 417.968C370.68 418.219 370.595 418.427 370.424 418.592C370.259 418.757 370.053 418.84 369.808 418.84ZM374.829 428.152C374.407 428.125 373.997 428.04 373.597 427.896C373.197 427.752 372.845 427.557 372.541 427.312C372.242 427.061 372.018 426.768 371.869 426.432L373.285 425.824C373.354 425.968 373.474 426.109 373.645 426.248C373.821 426.387 374.026 426.501 374.261 426.592C374.495 426.677 374.741 426.72 374.997 426.72C375.247 426.72 375.479 426.685 375.693 426.616C375.911 426.541 376.09 426.429 376.229 426.28C376.367 426.131 376.437 425.952 376.437 425.744C376.437 425.509 376.357 425.328 376.197 425.2C376.042 425.067 375.847 424.965 375.613 424.896C375.378 424.827 375.143 424.76 374.909 424.696C374.386 424.579 373.906 424.419 373.469 424.216C373.037 424.008 372.693 423.744 372.437 423.424C372.181 423.099 372.053 422.701 372.053 422.232C372.053 421.72 372.191 421.277 372.469 420.904C372.746 420.525 373.109 420.235 373.557 420.032C374.01 419.829 374.493 419.728 375.005 419.728C375.645 419.728 376.231 419.864 376.765 420.136C377.298 420.408 377.706 420.781 377.989 421.256L376.669 422.04C376.589 421.88 376.469 421.736 376.309 421.608C376.149 421.48 375.967 421.379 375.765 421.304C375.562 421.224 375.351 421.179 375.133 421.168C374.861 421.157 374.607 421.189 374.373 421.264C374.143 421.333 373.959 421.445 373.821 421.6C373.682 421.755 373.613 421.952 373.613 422.192C373.613 422.427 373.695 422.603 373.861 422.72C374.026 422.832 374.234 422.923 374.485 422.992C374.741 423.061 375.002 423.139 375.269 423.224C375.743 423.373 376.189 423.557 376.605 423.776C377.021 423.989 377.357 424.253 377.613 424.568C377.869 424.883 377.991 425.267 377.981 425.72C377.981 426.221 377.829 426.661 377.525 427.04C377.226 427.419 376.837 427.707 376.357 427.904C375.877 428.101 375.367 428.184 374.829 428.152ZM382.761 428.208C382.025 428.208 381.353 428.019 380.745 427.64C380.143 427.261 379.66 426.755 379.297 426.12C378.94 425.48 378.761 424.773 378.761 424C378.761 423.413 378.865 422.867 379.073 422.36C379.281 421.848 379.567 421.4 379.929 421.016C380.297 420.627 380.724 420.323 381.209 420.104C381.695 419.885 382.212 419.776 382.761 419.776C383.497 419.776 384.167 419.965 384.769 420.344C385.377 420.723 385.86 421.232 386.217 421.872C386.58 422.512 386.761 423.221 386.761 424C386.761 424.581 386.657 425.125 386.449 425.632C386.241 426.139 385.953 426.587 385.585 426.976C385.223 427.36 384.799 427.661 384.313 427.88C383.833 428.099 383.316 428.208 382.761 428.208ZM382.761 426.544C383.204 426.544 383.601 426.427 383.953 426.192C384.305 425.957 384.583 425.648 384.785 425.264C384.993 424.875 385.097 424.453 385.097 424C385.097 423.536 384.991 423.109 384.777 422.72C384.569 422.331 384.289 422.021 383.937 421.792C383.585 421.557 383.193 421.44 382.761 421.44C382.324 421.44 381.927 421.557 381.569 421.792C381.217 422.027 380.937 422.339 380.729 422.728C380.527 423.117 380.425 423.541 380.425 424C380.425 424.475 380.532 424.904 380.745 425.288C380.959 425.672 381.241 425.979 381.593 426.208C381.951 426.432 382.34 426.544 382.761 426.544ZM388.054 428V420H389.718V420.848C389.995 420.517 390.336 420.256 390.742 420.064C391.147 419.872 391.584 419.776 392.054 419.776C392.352 419.776 392.648 419.816 392.942 419.896L392.278 421.576C392.07 421.496 391.862 421.456 391.654 421.456C391.302 421.456 390.979 421.544 390.686 421.72C390.392 421.891 390.158 422.123 389.982 422.416C389.806 422.709 389.718 423.035 389.718 423.392V428H388.054ZM399.346 420H401.122L396.738 432H394.97L396.418 428L393.546 420H395.362L397.25 425.72L399.346 420Z" fill="#25272C"/>
<rect y="115" width="170" height="247" rx="10" fill="#EC6373"/>
<rect x="270" width="170" height="362" rx="10" fill="#B2D5FF"/>
<path d="M270 115H440V352C440 357.523 435.523 362 430 362H280C274.477 362 270 357.523 270 352V115Z" fill="#3385FF"/>
</svg>
