<svg width="20" height="20" viewBox="0 0 20 20" fill="none" xmlns="http://www.w3.org/2000/svg">
<path d="M16.4415 13.4167C16.4415 13.3917 16.4582 13.3667 16.4582 13.3334V5.41669C16.4582 4.15002 15.4332 3.12502 14.1665 3.12502H10.8915L12.0665 2.15002C12.3332 1.92502 12.3665 1.53336 12.1498 1.26669C11.9248 1.00002 11.5332 0.966691 11.2665 1.18336L8.7665 3.26669C8.62484 3.38336 8.5415 3.55836 8.5415 3.75002C8.5415 3.94169 8.62484 4.10836 8.7665 4.23336L11.2665 6.31669C11.3832 6.41669 11.5248 6.45836 11.6665 6.45836C11.8415 6.45836 12.0248 6.38336 12.1498 6.23336C12.3748 5.96669 12.3332 5.57502 12.0665 5.35002L10.8915 4.37502H14.1665C14.7415 4.37502 15.2082 4.84169 15.2082 5.41669V13.3334C15.2082 13.3667 15.2248 13.3917 15.2248 13.4167C14.1415 13.6917 13.3332 14.6667 13.3332 15.8334C13.3332 17.2167 14.4498 18.3334 15.8332 18.3334C17.2165 18.3334 18.3332 17.2167 18.3332 15.8334C18.3332 14.6667 17.5248 13.6917 16.4415 13.4167Z" fill="#EC6373"/>
<path d="M11.2332 15.7666L8.73317 13.6833C8.4665 13.4583 8.07484 13.5 7.84984 13.7666C7.62484 14.0333 7.6665 14.425 7.93317 14.65L9.10817 15.625H5.83317C5.25817 15.625 4.7915 15.1583 4.7915 14.5833V6.66663C4.7915 6.63329 4.77484 6.60829 4.77484 6.58329C5.85817 6.30829 6.6665 5.33329 6.6665 4.16663C6.6665 2.78329 5.54984 1.66663 4.1665 1.66663C2.78317 1.66663 1.6665 2.78329 1.6665 4.16663C1.6665 5.33329 2.47484 6.30829 3.55817 6.58329C3.55817 6.60829 3.5415 6.63329 3.5415 6.66663V14.5833C3.5415 15.85 4.5665 16.875 5.83317 16.875H9.10817L7.93317 17.85C7.6665 18.075 7.63317 18.4666 7.84984 18.7333C7.97484 18.8833 8.14984 18.9583 8.33317 18.9583C8.47484 18.9583 8.6165 18.9083 8.73317 18.8166L11.2332 16.7333C11.3748 16.6166 11.4582 16.4416 11.4582 16.25C11.4582 16.0583 11.3748 15.8916 11.2332 15.7666Z" fill="#3385FF"/>
</svg>
