<svg width="20" height="20" viewBox="0 0 20 20" fill="none" xmlns="http://www.w3.org/2000/svg">
<path d="M16.4417 13.4167C16.4417 13.3917 16.4583 13.3667 16.4583 13.3334V5.41669C16.4583 4.15002 15.4333 3.12502 14.1667 3.12502H10.8917L12.0667 2.15002C12.3333 1.92502 12.3667 1.53336 12.15 1.26669C11.925 1.00002 11.5333 0.966691 11.2667 1.18336L8.76666 3.26669C8.62499 3.38336 8.54166 3.55836 8.54166 3.75002C8.54166 3.94169 8.62499 4.10836 8.76666 4.23336L11.2667 6.31669C11.3833 6.41669 11.525 6.45836 11.6667 6.45836C11.8417 6.45836 12.025 6.38336 12.15 6.23336C12.375 5.96669 12.3333 5.57502 12.0667 5.35002L10.8917 4.37502H14.1667C14.7417 4.37502 15.2083 4.84169 15.2083 5.41669V13.3334C15.2083 13.3667 15.225 13.3917 15.225 13.4167C14.1417 13.6917 13.3333 14.6667 13.3333 15.8334C13.3333 17.2167 14.45 18.3334 15.8333 18.3334C17.2167 18.3334 18.3333 17.2167 18.3333 15.8334C18.3333 14.6667 17.525 13.6917 16.4417 13.4167Z" fill="#AAB4C7"/>
<path d="M11.2333 15.7666L8.73332 13.6833C8.46666 13.4583 8.07499 13.5 7.84999 13.7666C7.62499 14.0333 7.66666 14.425 7.93332 14.65L9.10832 15.625H5.83332C5.25832 15.625 4.79166 15.1583 4.79166 14.5833V6.66663C4.79166 6.63329 4.77499 6.60829 4.77499 6.58329C5.85832 6.30829 6.66666 5.33329 6.66666 4.16663C6.66666 2.78329 5.54999 1.66663 4.16666 1.66663C2.78332 1.66663 1.66666 2.78329 1.66666 4.16663C1.66666 5.33329 2.47499 6.30829 3.55832 6.58329C3.55832 6.60829 3.54166 6.63329 3.54166 6.66663V14.5833C3.54166 15.85 4.56666 16.875 5.83332 16.875H9.10832L7.93332 17.85C7.66666 18.075 7.63332 18.4666 7.84999 18.7333C7.97499 18.8833 8.14999 18.9583 8.33332 18.9583C8.47499 18.9583 8.61666 18.9083 8.73332 18.8166L11.2333 16.7333C11.375 16.6166 11.4583 16.4416 11.4583 16.25C11.4583 16.0583 11.375 15.8916 11.2333 15.7666Z" fill="#AAB4C7"/>
</svg>
