<svg width="20" height="20" viewBox="0 0 20 20" fill="none" xmlns="http://www.w3.org/2000/svg">
<path d="M16.5834 11.25H3.41675C2.16675 11.25 1.66675 11.7833 1.66675 13.1083V16.475C1.66675 17.8 2.16675 18.3333 3.41675 18.3333H16.5834C17.8334 18.3333 18.3334 17.8 18.3334 16.475V13.1083C18.3334 11.7833 17.8334 11.25 16.5834 11.25Z" fill="#3385FF"/>
<path d="M10.7501 1.66663H3.41675C2.16675 1.66663 1.66675 2.19996 1.66675 3.52496V6.89163C1.66675 8.21663 2.16675 8.74996 3.41675 8.74996H10.7501C12.0001 8.74996 12.5001 8.21663 12.5001 6.89163V3.52496C12.5001 2.19996 12.0001 1.66663 10.7501 1.66663Z" fill="#EC6373"/>
</svg>
