<svg width="20" height="20" viewBox="0 0 20 20" fill="none" xmlns="http://www.w3.org/2000/svg">
<path d="M14.4082 3.45L14.3499 6.60833C14.3416 7.04166 14.6166 7.61666 14.9666 7.875L17.0332 9.44166C18.3582 10.4417 18.1416 11.6667 16.5582 12.1667L13.8666 13.0083C13.4166 13.15 12.9416 13.6417 12.8249 14.1L12.1832 16.55C11.6749 18.4833 10.4082 18.675 9.35823 16.975L7.89157 14.6C7.6249 14.1667 6.99157 13.8417 6.49157 13.8667L3.70823 14.0083C1.71657 14.1083 1.1499 12.9583 2.4499 11.4417L4.0999 9.525C4.40823 9.16666 4.5499 8.5 4.40823 8.05L3.55823 5.35C3.06657 3.76666 3.9499 2.89166 5.5249 3.40833L7.98323 4.21666C8.3999 4.35 9.0249 4.25833 9.3749 4L11.9416 2.15C13.3332 1.15833 14.4416 1.74166 14.4082 3.45Z" fill="#EC6373"/>
<path d="M17.8664 17.0583L15.3414 14.5333C15.0998 14.2916 14.6998 14.2916 14.4581 14.5333C14.2164 14.775 14.2164 15.175 14.4581 15.4166L16.9831 17.9416C17.1081 18.0666 17.2664 18.125 17.4248 18.125C17.5831 18.125 17.7414 18.0666 17.8664 17.9416C18.1081 17.7 18.1081 17.3 17.8664 17.0583Z" fill="#3385FF"/>
</svg>
