<svg width="20" height="20" viewBox="0 0 20 20" fill="none" xmlns="http://www.w3.org/2000/svg">
<path d="M17.5334 11.0667L16.7667 10.3167L10.3083 16.7667L11.0833 17.5416C11.7333 18.1916 12.4083 18.5166 13.075 18.5166C13.7417 18.5166 14.4167 18.1916 15.0667 17.5416L17.5334 15.075C18.8584 13.7417 18.8584 12.4 17.5334 11.0667Z" fill="#AAB4C7"/>
<path d="M8.90834 2.4417C7.60001 1.13337 6.22501 1.13337 4.91667 2.4417L2.44167 4.90837C1.14167 6.2167 1.14167 7.5917 2.44167 8.90003L3.20834 9.6667L9.66668 3.20837L8.90834 2.4417Z" fill="#AAB4C7"/>
<path d="M18.175 3.28333C17.0834 6.00833 14.5917 9.56666 12.2167 11.8917C11.875 9.74166 10.1584 8.05833 7.9917 7.75833C10.325 5.37499 13.9084 2.84999 16.6417 1.74999C17.125 1.56666 17.6084 1.70833 17.9084 2.00833C18.225 2.32499 18.375 2.79999 18.175 3.28333Z" fill="#AAB4C7"/>
<path d="M11.4833 12.575C11.3166 12.7166 11.15 12.8583 10.9833 12.9916L9.49164 14.1833C9.49164 14.1583 9.48331 14.125 9.48331 14.0916C9.36664 13.2 8.94998 12.375 8.27498 11.7C7.59164 11.0166 6.74164 10.6 5.80831 10.4833C5.78331 10.4833 5.74998 10.475 5.72498 10.475L6.93331 8.94997C7.04998 8.79997 7.17498 8.6583 7.30831 8.5083L7.87498 8.5833C9.66664 8.8333 11.1083 10.2416 11.3916 12.025L11.4833 12.575Z" fill="#AAB4C7"/>
<path d="M8.69167 14.6834C8.69167 15.6001 8.34167 16.4751 7.67501 17.1334C7.16667 17.6501 6.48334 18.0001 5.65001 18.1001L3.60834 18.3251C2.49167 18.4501 1.53334 17.4917 1.65834 16.3667L1.88334 14.3167C2.08334 12.4917 3.60834 11.3251 5.22501 11.2917C5.38334 11.2834 5.55834 11.2917 5.72501 11.3084C6.43334 11.4001 7.11667 11.7251 7.69167 12.2917C8.25001 12.8501 8.56667 13.5084 8.65834 14.2001C8.67501 14.3667 8.69167 14.5251 8.69167 14.6834Z" fill="#AAB4C7"/>
</svg>
