<svg width="20" height="20" viewBox="0 0 20 20" fill="none" xmlns="http://www.w3.org/2000/svg">
<path d="M14.4083 3.45L14.35 6.60833C14.3417 7.04166 14.6167 7.61666 14.9667 7.875L17.0333 9.44166C18.3583 10.4417 18.1417 11.6667 16.5583 12.1667L13.8667 13.0083C13.4167 13.15 12.9417 13.6417 12.825 14.1L12.1833 16.55C11.675 18.4833 10.4083 18.675 9.35833 16.975L7.89166 14.6C7.62499 14.1667 6.99166 13.8417 6.49166 13.8667L3.70832 14.0083C1.71666 14.1083 1.14999 12.9583 2.44999 11.4417L4.09999 9.525C4.40832 9.16666 4.54999 8.5 4.40832 8.05L3.55832 5.35C3.06666 3.76666 3.94999 2.89166 5.52499 3.40833L7.98333 4.21666C8.39999 4.35 9.02499 4.25833 9.37499 4L11.9417 2.15C13.3333 1.15833 14.4417 1.74166 14.4083 3.45Z" fill="#AAB4C7"/>
<path d="M17.8667 17.0583L15.3417 14.5333C15.1 14.2916 14.7 14.2916 14.4583 14.5333C14.2167 14.775 14.2167 15.175 14.4583 15.4166L16.9833 17.9416C17.1083 18.0666 17.2667 18.125 17.425 18.125C17.5833 18.125 17.7417 18.0666 17.8667 17.9416C18.1083 17.7 18.1083 17.3 17.8667 17.0583Z" fill="#AAB4C7"/>
</svg>
