<svg width="20" height="20" viewBox="0 0 20 20" fill="none" xmlns="http://www.w3.org/2000/svg">
<path d="M16.5833 11.25H3.41666C2.16666 11.25 1.66666 11.7833 1.66666 13.1083V16.475C1.66666 17.8 2.16666 18.3333 3.41666 18.3333H16.5833C17.8333 18.3333 18.3333 17.8 18.3333 16.475V13.1083C18.3333 11.7833 17.8333 11.25 16.5833 11.25Z" fill="#AAB4C7"/>
<path d="M10.75 1.66663H3.41666C2.16666 1.66663 1.66666 2.19996 1.66666 3.52496V6.89163C1.66666 8.21663 2.16666 8.74996 3.41666 8.74996H10.75C12 8.74996 12.5 8.21663 12.5 6.89163V3.52496C12.5 2.19996 12 1.66663 10.75 1.66663Z" fill="#AAB4C7"/>
</svg>
